# xmcd
#
# Track frame offsets:
#	150
#	12782
#	27205
#	42220
#	56812
#	73385
#	85057
#	98187
#	112002
#	125655
#	141675
#	155542
#	170262
#	183942
#	198930
#	212055
#	225225
#	239100
#	252070
#	264710
#
# Disc length: 3688 seconds
#
# Revision: 1
# Processed by: cddbd v1.4PL0 Copyright (c) Steve Scherf et al.
# Submitted via: EasyCDDAExtractor 5.1.0
#
DISCID=210e6614
DTITLE=compilation disc - The Songs Of Xarhakos And Zambetas
DYEAR=1900
DGENRE=Country
TTITLE0=Ta Trena Pou Fygan
TTITLE1=Aponi Zoe
TTITLE2=Ta Dakria Mou Ine Kafta
TTITLE3=Onrio Demeno
TTITLE4=Ena Messimeri
TTITLE5=Sta Heria Sou Megalossan
TTITLE6=Vale Kialo Piato Sto Trapezi
TTITLE7=Lefteris
TTITLE8=Matia Vourkinena
TTITLE9=Freattyda
TTITLE10=Den Echi Dormo Na Diavo
TTITLE11=Siko Horepse Syrtaki
TTITLE12=Ti Soukana Ke Megatelipses
TTITLE13=Ta Dakria
TTITLE14=Afti Pou Fevgoun
TTITLE15=O Alitis
TTITLE16=Dimitris, My Dear
TTITLE17=Ti Na Feti - Ti Na Feti
TTITLE18=Pai-Pai
TTITLE19=Ta Delina
EXTD=
EXTT0=
EXTT1=
EXTT2=
EXTT3=
EXTT4=
EXTT5=
EXTT6=
EXTT7=
EXTT8=
EXTT9=
EXTT10=
EXTT11=
EXTT12=
EXTT13=
EXTT14=
EXTT15=
EXTT16=
EXTT17=
EXTT18=
EXTT19=
PLAYORDER=
